<svg width="260" height="198" viewBox="0 0 260 198" xmlns="http://www.w3.org/2000/svg" xmlns:xlink="http://www.w3.org/1999/xlink">
  <title>
    foreningsmentor-logo
  </title>
  <defs>
    <path d="M100.77 194.94h-6.9C41.87 193.13.25 150.38.25 97.91.24 44.3 43.7.83 97.33.83c53.61 0 97.08 43.46 97.08 97.08 0 52.47-41.62 95.22-93.64 97.03" id="a"/>
    <path d="M.57 96.91a96.75 96.75 0 1 1 193.5 0c0 53.44-43.31 96.75-96.74 96.75-53.44 0-96.75-43.31-96.75-96.75" id="c"/>
  </defs>
  <g fill="none" fill-rule="evenodd">
    <path d="M20.57 99.91a96.75 96.75 0 1 1 193.5 0c0 53.44-43.31 96.75-96.74 96.75-53.44 0-96.75-43.31-96.75-96.75" fill="#4FBAB7"/>
    <g transform="translate(20 2)">
      <mask id="b" fill="#fff">
        <use xlink:href="#a"/>
      </mask>
      <path d="M132.3 2.6L88.07-1h-3L83.75 9.83l-9.04 24.2s-6.5 10-9.13 13.13c-2.62 3.13-9.12 10.75-9.62 11.38-.5.62-1.75 2.75-2.25 3.37-.5.63-.5 2.25-1 4.13-.5 1.87-1.75 10.37-2.38 12.87a35.2 35.2 0 0 0-.7 4.3c-1.49-.3-11.4-2.22-15.63-3.38-4.58-1.25-23.92-6-23.92-6l-7.12-2.47-5.13 34.74 1.5 9.23s18.17 1.42 22.92 1.67 11.34.83 14.25.41c2.63-.37 15.48-1.63 17.99-1.87.25.32.54.63.85.87 1.25 1 9.25 4.63 9.25 4.63l14.75 4.62s3-.87 7.12-2c4.13-1.12 8.75-2.62 8.75-2.62l2.25-2.75s8.5-5.63 9.13-6.13c.62-.5 1.25-1.75.62-2.5s-4.75-5.25-4.75-5.25.88-1.5 1.88-2.62c1-1.13 1.87-2.38 1.87-2.38l1.38-6s-1.13-9-1.5-11c-.38-2-.38-2.5-.38-2.5l-1.75-4.12 2.75-10.88s2.88-6 5-8.75c2.13-2.75 3.63-5.12 3.63-5.12l-1.13-9.13.25-9.5L132.3 2.6" fill="#FFFFFE" mask="url(#b)"/>
    </g>
    <g transform="translate(20 3)">
      <mask id="d" fill="#fff">
        <use xlink:href="#c"/>
      </mask>
      <path d="M36.4 19.83l3.34 7.5L65.41 31l15.17-5.84M8.4 53.83l10-1 18 30.67 7.33 41.66-7.5 34-9.33 9.67M65.4 31l-1.33 22.33m-24.34-26l-21.33 25.5" stroke="#FFFFFE" stroke-width="2" mask="url(#d)"/>
      <path d="M45.4 28.33l-25.82 26.5m122.5 5.2l-23 29.38m12.74-23.75l-14 17.38m26.75-20.63L120.2 95.16m28.75-29.62s-8.35 12.14-11.63 16.37c-3.27 4.23-15.37 19.75-15.37 19.75m30.87-33.37l-29.5 40.25m33.63-37.25s-9.13 13.62-13.13 19.12c-4 5.5-18.62 23.88-18.62 23.88m36.37-39.88l-31.62 42m35.63-39l-31.63 41.13m35.25-38.38l-30.25 39.63m34.75-36.5l-28.88 37.87m33-35.87l-28.25 37.25m31.63-34.75l-26.13 35.12m30.5 22.88l-27.62 24.25m29.75-31.75l-27.63 24.25m19.88-21.75l-12.93 10.67M107.2 162.8L86.82 183.4m18-24.3l-25.46 25.82m22.84-29.6l-26.18 27.5m23.34-31.13l-27.05 28.65m24.29-32.8l-28.22 30.62m25.45-34.62l-29.81 32.07m24.72-34.03l-29.01 31.56m24.14-33.45l-27.63 31.2m22.69-32.8l-26.84 30.03m21.82-31.78l-26.1 29.02m21.3-30.84l-25.9 28.44m22.55-30.03l-26.69 27.49m21.97-29.02l-24.15 25.67m19.56-27.42L38.72 147.7m13.02-19.64l-10.98 10.7m6.18-12.8l-4.44 4.36M50.74 29.1L22.46 59.5m33.9-29.85L24.78 63.4M136.32 5.9l-10.16 11.62m14.29-9.37l-10.16 11.62m13.28-9.62l-10.16 11.62m13.16-9.5l-10.16 11.63m13.54-9l-10.16 11.62m13.66-8.74L143.29 29.4m14.03-9.37l-10.16 11.62m17.16-13.25l-9.6 11.04m-93.57.95l-34.1 36.64m38.41-35.89L29.51 71.5m35.4-32.73L32.48 76.28M64.7 46.7L34.5 80.46m30.82-26.91L39.58 80.66" stroke="#FFFFFE" stroke-width="1.7" mask="url(#d)"/>
      <path d="M123.2 15.54l22.87 16.25 21.63-5.75m-21.63 5.75l-6.25 26.62s15.01 10.74 21.51 15.37c6.5 4.63 23.5 15.63 23.5 15.63l11.5-.5M139.7 59.04l-23 19.37-15.38-5.75m15.38 5.75l7.5 36.13-30.13 28.37s-15.96-5.13-23.22-7.9c-5.8-2.22-27.06-10.51-27.06-10.51m140.66-34.96s-25.5 34.87-25.13 34.75c.38-.13 13.63 17.62 13.63 17.62l12.63-2.25m-12.63 2.25l-16.5 26 3.88 6.75m-3.88-6.75h-45.12l-29.63 19-45.46-27.75m45.46 27.75l1.25 7.5m28.38-26.5l-17.25-25m30.12-28.37s13.37 7.12 34.62 9.5" stroke="#FFFFFE" stroke-width="2" mask="url(#d)"/>
    </g>
    <path d="M149.7 10.79l.13-2.13-18.38 27.13s-1.25 1.62-.63 4.5c.63 2.87 2.38 8.75 2.13 10.37a20.24 20.24 0 0 1-2.88 6.88c-1.5 2.25-4.24 5.5-5.12 9.12a324.7 324.7 0 0 0-2.88 14.38c-.62 3.5-1.5 8.87-2.24 11.37-.75 2.5-.88 3.75-2.38 5.13-1.5 1.37-3.88 3.25-4.75 2.87-.88-.37-4.5-3.87-4.88-6-.37-2.12.5-5.87 1.13-10.25.63-4.37 1.38-9.12 1.38-9.12l-4.5-8.63s-11-5-14-5.75-6.5-1.75-7.5-.87c-1 .87-3.13 3.37-2.38 5.62s1.5 3.13 1.5 3.13-1.38 0-2.5.25c-1.13.25-2.38.25-3.38 2.25s-1 5-.37 6.37a14.85 14.85 0 0 0 1.75 2.75s-1.75.63-2.88 2.63c-1.12 2-.74 4.25 0 5.87.76 1.63 2 3.5 3.76 4.88a40.5 40.5 0 0 0 3.37 2.37s-3 .75-3.63 2.75c-.62 2 0 5.5 1.5 6.88 1.5 1.37 6.63 4.87 8.88 6.12 2.25 1.25 4 2.63 8.38 2.38 4.37-.25 8.62-.38 9.75-.75 1.12-.38 2.62-1.13 4.25 0 1.62 1.12 3.25 2.62 3 4.62s-1.25 3.75-3.5 4.5-12 3.25-13.5 3.38c-1.5.12-9-2.5-13.38-4.5-4.38-2-9.5-4.38-10-6-.5-1.63-3.5-12.5-4-15.63-.5-3.12 0-10.5.5-14.87.5-4.38 3.38-18.38 4.38-20.75 1-2.38 6-8.88 8.75-12 2.75-3.13 9.12-11.38 9.87-13 .75-1.63 4.38-11.5 6.25-16.63 1.88-5.12 3.46-9.58 4.13-11.5C105.48 9 108.08 1 108.08 1h-3l-1.34 10.83-9.04 24.2s-6.5 10-9.13 13.13c-2.62 3.13-9.12 10.75-9.62 11.38-.5.62-1.75 2.75-2.25 3.37-.5.63-.5 2.25-1 4.13-.5 1.87-1.75 10.37-2.38 12.87a35.2 35.2 0 0 0-.7 4.3c-1.49-.3-11.4-2.22-15.63-3.38a2313 2313 0 0 1-23.92-7v1s13.09 4.5 17 5.5c3.87.99 21.98 4.48 22.48 4.58a84.7 84.7 0 0 0-.35 4.88c-.13 3-.38 6.25.38 9.5.75 3.25 3.62 15.12 3.62 15.12l.11.24c-.9.16-3.15.53-5.4.85-2.92.41-10.67 1.66-13 1.66s-35.17-2.75-35.17-2.75l-.41 1.92s18.16 1.42 22.91 1.67 11.34.83 14.25.41c2.63-.37 15.48-1.63 17.99-1.87.25.32.54.63.84.87 1.26 1 9.26 4.63 9.26 4.63l14.75 4.62s3-.87 7.12-2c4.13-1.12 8.75-2.62 8.75-2.62l2.25-2.75s8.5-5.63 9.13-6.13c.62-.5 1.25-1.75.62-2.5s-4.75-5.25-4.75-5.25.88-1.5 1.88-2.62c1-1.13 1.87-2.38 1.87-2.38l1.38-6s-1.13-9-1.5-11c-.38-2-.38-2.5-.38-2.5l-1.75-4.12 2.75-10.88s2.87-6 5-8.75 3.63-5.12 3.63-5.12l-1.13-9.13.25-9.5L149.7 10.8" fill="#1A1919"/>
    <path d="M86 61c1-.25 2.4-.09 3.4.33 1 .42 7.84 3.5 10.42 4.58 2.59 1.09 5.09 2 6.34 4s2.83 5.75 2.42 8.5c-.42 2.75-1 8.34-1.5 11.25-.5 2.92-.67 7.25.91 9 1.59 1.75 4.5 3.25 5.75 3.09 1.25-.17 4.84-2.92 6.09-5.34 1.25-2.41 2.33-8.08 2.83-11.16.5-3.09.58-6 .58-6s2.34 6.41 2.59 11.91-.17 6.92-1.42 8.84c-1.25 1.91-3.33 5.66-3.42 6.41 0 0-4.25-.08-4.91.17-.67.25-6.5 4.83-7 5.08s-14.17.67-14.17.67-10.33-5.92-11.5-7-1.58-1.33-1.83-2.33.41-3.67.41-3.67 2.17-1.17 2.67-1.25c.5-.08 15.42 6.58 15.42 6.58s4.16.09 6.25.09h2.83l-1.08-1.75s-5.5.66-5.92.66c-.42 0-13.17-5.75-14.33-6.41-1.17-.67-9.84-8.42-9.84-8.42l-1.33-4 2.08-3.42s10.17 6.09 11.5 6.84c1.34.75 7.67 3 10.25 4 2.59 1 4.75 1.75 4.75 1.75l-.25-2.5s-13.58-4.84-15.08-5.67c-1.5-.83-6.5-4.58-7.67-5.42-1.16-.83-3.5-3.91-3.5-3.91l-.25-5 2.42-1.25L101.83 80c1.58.75 3.33 1.83 4 1.83.66 0 1.25-.33 1.25-.33l-.09-1.42L85.58 68.5s-1.92-3.09-2.09-3.42c-.16-.33 0-2.58 0-2.58L86 61M112.66 111.41s3.67-2.5 5.08-2.91c1.42-.42 2.5-.84 3.75-.17 1.25.67 2.84 2.83 3.09 3.42.25.58.83 1.33-.75 2.41-1.59 1.09-5.92 3.5-5.92 3.5s.17-2.33-2.08-4.08-3.17-2.17-3.17-2.17" fill="#FFFFFE"/>
    <path d="M197.91 172.51a11.5 11.5 0 0 1-.4-1.74h-.12c-.09.52-.22 1.16-.4 1.74l-.92 3.05h2.76l-.92-3.05zm-5.69 7.85v-1.58l.74-.07 2.48-7.75-.77-.07v-1.57H199l2.93 9.39.77.07v1.58h-3.57v-1.56l.55-.05-.46-1.5h-3.54l-.47 1.5.53.05v1.56h-3.52zM209.69 172.51a11.5 11.5 0 0 1-.4-1.74h-.13c-.08.52-.22 1.16-.4 1.74l-.92 3.05h2.77l-.92-3.05zm-5.7 7.85v-1.58l.75-.07 2.48-7.75-.78-.07v-1.57h4.33l2.93 9.39.77.07v1.58h-3.57v-1.56l.55-.05-.46-1.5h-3.53l-.48 1.5.54.05v1.56h-3.53zM222.7 172.72c0-1.44-.89-1.74-2.77-1.74-.43 0-.8 0-1.24.02v3.62c.42.02.85.02 1.27.02 1.9 0 2.75-.42 2.75-1.83v-.1zm-6.79 7.64v-1.58l.76-.07v-7.75l-.76-.07v-1.57c1.25-.05 2.6-.08 3.97-.08 2.66 0 4.86.54 4.86 3.45v.1c0 1.68-.73 2.56-1.9 3.05l1.78 2.88.82.06v1.58h-2.33l-2.37-4.07-.81.01h-1.24v2.4l.76.08v1.58h-3.54zM237.4 169.31v1.58l-.77.08v7.74l.76.07v1.58h-3.58v-1.58l.76-.07v-3.23h-4.85v3.23l.76.07v1.58h-3.6v-1.58l.76-.07v-7.75l-.75-.07v-1.57h3.6v1.57l-.77.08v2.74h4.85v-2.75l-.76-.07v-1.57h3.58M249.15 169.31v1.58l-.74.08v4.87c0 3.18-1.55 4.74-4.34 4.74-2.81 0-4.34-1.56-4.34-4.74v-4.88l-.76-.07v-1.57h3.57v1.57l-.76.08v4.77c0 2.22.53 3.07 2.29 3.07 1.75 0 2.29-.84 2.29-3.07v-4.78l-.76-.07v-1.57h3.55M254.44 180.58c-1.44 0-2.92-.18-3.49-.33v-2.45h1.37l.15 1.03c.64.03.95.06 1.97.06 1.18 0 1.83-.4 1.83-1.41 0-.72-.34-1.09-1.41-1.58l-1.74-.77c-1.5-.69-2.44-1.4-2.44-3.13 0-2.03 1.36-2.9 3.97-2.9 1.4 0 2.78.22 3.32.35v2.35h-1.37l-.18-.98c-.53-.03-1.17-.05-1.65-.05-1.32 0-2.05.27-2.05 1.18 0 .67.33 1.02 1.41 1.48l1.72.76c1.67.73 2.49 1.52 2.49 3.18 0 2.16-1.38 3.21-3.9 3.21" fill="#4B4E4E"/>
    <path fill="#D8232A" d="M6.2 152.34v6.4l1.49.16v3.16H.5v-3.16l1.52-.15V143.2l-1.52-.15v-3.16h15.62v5.13h-2.74l-.3-1.67H6.2V149h9.3v3.34H6.2M30.22 152.63c0-3.22-1.13-4.44-3.67-4.44-2.53 0-3.63 1.22-3.63 4.44v2.06c0 3.22 1.1 4.44 3.63 4.44 2.54 0 3.67-1.22 3.67-4.44v-2.06zm-3.67 9.84c-4.89 0-7.57-2.5-7.57-7.78v-2.06c0-5.27 2.68-7.78 7.57-7.78 4.92 0 7.6 2.48 7.6 7.78v2.06c0 5.28-2.68 7.78-7.6 7.78zM42.42 149.44v9.34l1.5.15v3.13h-6.9v-3.13l1.47-.15v-10.23l-1.47-.15v-3.13h5.2v1.37c1.63-1.4 3.66-1.79 5.75-1.79v3.61c-2.03 0-4.24.42-5.55.98M61.9 152.07c0-1.94-.42-4.06-3.67-4.06-3.16 0-3.61 2.12-3.61 4.06v.24h7.28v-.24zm-7.31 2.83v.27c0 2.47.33 4.05 4.44 4.05 1.8 0 4.45-.18 6.05-.38v2.92a25.1 25.1 0 0 1-6.23.71c-6.02 0-8.2-2.38-8.2-8.02v-1.4c0-5.48 2.66-8.2 7.58-8.2 5.6 0 7.57 3.61 7.57 8.53v1.52H54.59zM80.72 162.06V151.4c0-2.41-.42-3.25-2.36-3.25-1.13 0-2.65.42-4.4 1.14v9.48l1.48.15v3.13h-6.88v-3.13l1.46-.15v-10.23l-1.46-.15v-3.13h5.24v1.34c1.82-1.04 3.64-1.76 5.52-1.76 4.74 0 5.34 2.75 5.34 6.56v7.37l1.49.15v3.13h-5.43M90.6 142.68h4.09v-3.8H90.6v3.8zm-1.4 19.38v-3.13l1.46-.15v-10.23l-1.46-.15v-3.13h5.43v13.5l1.46.16v3.13H89.2zM111.26 162.06V151.4c0-2.41-.42-3.25-2.36-3.25-1.13 0-2.65.42-4.4 1.14v9.48l1.48.15v3.13H99.1v-3.13l1.46-.15v-10.23l-1.46-.15v-3.13h5.24v1.34c1.82-1.04 3.64-1.76 5.52-1.76 4.74 0 5.34 2.75 5.34 6.56v7.37l1.49.15v3.13h-5.43M127.37 147.75c-3.04 0-3.45 1.16-3.45 2.92 0 1.82.53 2.95 3.45 2.95 2.98 0 3.52-1.13 3.52-2.95 0-1.85-.53-2.92-3.52-2.92zm0 13.02h-3c-.52.45-.9 1.23-.9 2.48 0 1.73.6 2.56 3.9 2.56 3.2 0 4.06-.83 4.06-2.56 0-2.03-.78-2.48-4.06-2.48zm0 7.82c-5.36 0-7.66-1.67-7.66-5.31 0-1.25.57-2.53 1.55-3.46a2.85 2.85 0 0 1-1.34-2.5 3 3 0 0 1 1.49-2.66c-.86-.86-1.31-2.17-1.31-4 0-3.33 1.31-5.8 7.36-5.8h7.9v2.38l-1.64.3c.36.44.99 1.52.99 3.13 0 4.08-2.54 5.84-7.34 5.84-1.46 0-2.71-.18-3.63-.5-.4.3-.63.65-.63 1.04 0 .74.42.9 1.46.9h2.8c4.92 0 7.88.74 7.88 5.24 0 3.67-2.51 5.4-7.88 5.4zM144.33 162.47c-2.35 0-5-.44-5.72-.65v-4.15h2.74l.27 1.67c.86.06 1.67.1 2.71.1 2.24 0 2.9-.6 2.9-1.77 0-1.16-.51-1.49-2.96-2.53l-1.22-.5c-3.16-1.32-4.71-2.6-4.71-5.26 0-3.33 2.26-4.53 6.77-4.53 2.05 0 4.62.39 5.45.66v3.84h-2.7l-.3-1.4c-.78-.06-1.86-.09-2.42-.09-2.06 0-2.92.27-2.92 1.44 0 1.04.5 1.46 2.56 2.32l1.34.57c3.76 1.58 5.01 2.65 5.01 5.3 0 3.05-1.82 4.98-6.8 4.98M154.22 162.06v-3.16l1.49-.15V143.2l-1.5-.15v-3.16h6.03l4.32 7.58c.54.92 1.02 1.9 1.47 2.83h.06c.47-.93.95-1.94 1.46-2.8l4.41-7.6h6.02v3.15l-1.49.15v15.54l1.5.15v3.16h-7.07v-3.16l1.52-.15v-8.98c0-1.43.06-2.86.12-4.23h-.06c-.54 1.04-1.1 2.3-1.7 3.3l-3.07 5.14h-3.31l-3.04-5.13c-.6-1.01-1.17-2.3-1.7-3.31h-.06c.09 1.37.12 2.8.12 4.23v8.98l1.52.15v3.16h-7.04M192.17 152.07c0-1.94-.42-4.06-3.67-4.06-3.16 0-3.6 2.12-3.6 4.06v.24h7.27v-.24zm-7.3 2.83v.27c0 2.47.32 4.05 4.44 4.05a56 56 0 0 0 6.05-.38v2.92c-1.22.33-3.43.71-6.23.71-6.03 0-8.2-2.38-8.2-8.02v-1.4c0-5.48 2.65-8.2 7.57-8.2 5.6 0 7.58 3.61 7.58 8.53v1.52h-11.22zM211 162.06V151.4c0-2.41-.42-3.25-2.36-3.25-1.13 0-2.65.42-4.41 1.14v9.48l1.49.15v3.13h-6.89v-3.13l1.46-.15v-10.23l-1.46-.15v-3.13h5.25v1.34c1.82-1.04 3.64-1.76 5.51-1.76 4.75 0 5.34 2.75 5.34 6.56v7.37l1.5.15v3.13h-5.44M225.19 162.47c-3.31 0-4.62-1.28-4.62-4.8v-9.27l-3.13-.24v-2.89h3.13v-4.17h3.93v4.17h4.09v3.13h-4.09v9.21c0 1.55.12 1.85 1.55 1.85.87 0 2.06-.09 2.54-.12v2.69c-.45.12-1.91.44-3.4.44M241.53 152.63c0-3.22-1.13-4.44-3.67-4.44s-3.64 1.22-3.64 4.44v2.06c0 3.22 1.1 4.44 3.64 4.44 2.53 0 3.67-1.22 3.67-4.44v-2.06zm-3.67 9.84c-4.89 0-7.57-2.5-7.57-7.78v-2.06c0-5.27 2.68-7.78 7.57-7.78 4.92 0 7.6 2.48 7.6 7.78v2.06c0 5.28-2.68 7.78-7.6 7.78zM253.73 149.44v9.34l1.49.15v3.13h-6.89v-3.13l1.46-.15v-10.23l-1.46-.15v-3.13h5.19v1.37c1.64-1.4 3.67-1.79 5.75-1.79v3.61c-2.02 0-4.23.42-5.54.98"/>
    <g stroke="#FFFFFE" stroke-linecap="round" stroke-linejoin="round" stroke-width="7">
      <path d="M6.2 152.34v6.4l1.49.16v3.16H.5v-3.16l1.52-.15V143.2l-1.52-.15v-3.16h15.62v5.13h-2.74l-.3-1.67H6.2V149h9.3v3.34H6.2zm24.02.3c0-3.23-1.13-4.45-3.67-4.45-2.53 0-3.63 1.22-3.63 4.44v2.06c0 3.22 1.1 4.44 3.63 4.44 2.54 0 3.67-1.22 3.67-4.44v-2.06zm-3.67 9.83c-4.89 0-7.57-2.5-7.57-7.78v-2.06c0-5.27 2.68-7.78 7.57-7.78 4.92 0 7.6 2.48 7.6 7.78v2.06c0 5.28-2.68 7.78-7.6 7.78zm15.87-13.03v9.34l1.5.14v3.14h-6.9v-3.14l1.47-.14v-10.23l-1.47-.15v-3.13h5.2v1.37c1.63-1.4 3.66-1.79 5.75-1.79v3.61c-2.03 0-4.24.42-5.55.98zm19.48 2.63c0-1.94-.42-4.06-3.67-4.06-3.16 0-3.61 2.12-3.61 4.06v.24h7.28v-.24zm-7.31 2.83v.27c0 2.47.33 4.05 4.44 4.05 1.8 0 4.45-.18 6.05-.38v2.92a25.1 25.1 0 0 1-6.23.71c-6.02 0-8.2-2.38-8.2-8.02v-1.4c0-5.48 2.66-8.2 7.58-8.2 5.6 0 7.57 3.61 7.57 8.53v1.52H54.59zm26.13 7.16V151.4c0-2.41-.42-3.25-2.36-3.25-1.13 0-2.65.42-4.4 1.14v9.48l1.48.14v3.14h-6.88v-3.14l1.46-.14v-10.23l-1.46-.15v-3.13h5.24v1.34c1.82-1.04 3.64-1.76 5.52-1.76 4.74 0 5.34 2.74 5.34 6.56v7.37l1.49.14v3.14h-5.43zm9.88-19.38h4.09v-3.8H90.6v3.8zm-1.4 19.38v-3.14l1.46-.14v-10.23l-1.46-.15v-3.13h5.43v13.5l1.46.15v3.14H89.2zm22.06 0V151.4c0-2.41-.42-3.25-2.36-3.25-1.13 0-2.65.42-4.4 1.14v9.48l1.48.14v3.14H99.1v-3.14l1.46-.14v-10.23l-1.46-.15v-3.13h5.24v1.34c1.82-1.04 3.64-1.76 5.52-1.76 4.74 0 5.34 2.74 5.34 6.56v7.37l1.49.14v3.14h-5.43zM127.37 147.75c-3.04 0-3.45 1.16-3.45 2.92 0 1.82.53 2.95 3.45 2.95 2.98 0 3.52-1.14 3.52-2.95 0-1.85-.53-2.92-3.52-2.92zm0 13.02h-3c-.52.45-.9 1.23-.9 2.48 0 1.73.6 2.56 3.9 2.56 3.2 0 4.06-.83 4.06-2.56 0-2.03-.78-2.48-4.06-2.48zm0 7.82c-5.36 0-7.66-1.67-7.66-5.31 0-1.25.57-2.53 1.55-3.46a2.85 2.85 0 0 1-1.34-2.5 3 3 0 0 1 1.49-2.66c-.86-.86-1.31-2.17-1.31-4 0-3.33 1.31-5.8 7.36-5.8h7.9v2.38l-1.64.3c.36.44.99 1.52.99 3.13 0 4.08-2.54 5.84-7.34 5.84-1.46 0-2.71-.18-3.63-.5-.4.3-.63.65-.63 1.04 0 .74.42.9 1.46.9h2.8c4.92 0 7.88.74 7.88 5.24 0 3.67-2.51 5.4-7.88 5.4zm16.96-6.12c-2.35 0-5-.44-5.72-.65v-4.15h2.74l.27 1.67c.86.06 1.67.1 2.71.1 2.24 0 2.9-.6 2.9-1.77 0-1.16-.51-1.49-2.96-2.53l-1.22-.5c-3.16-1.32-4.71-2.6-4.71-5.26 0-3.33 2.26-4.53 6.77-4.53 2.05 0 4.62.39 5.45.66v3.85h-2.7l-.3-1.4c-.78-.07-1.86-.1-2.42-.1-2.06 0-2.92.27-2.92 1.44 0 1.04.5 1.46 2.56 2.32l1.34.57c3.76 1.58 5.01 2.65 5.01 5.3 0 3.05-1.82 4.98-6.8 4.98zm9.89-.41v-3.16l1.49-.15V143.2l-1.5-.15v-3.16h6.03l4.32 7.58c.54.92 1.02 1.9 1.47 2.83h.06c.47-.93.95-1.94 1.46-2.8l4.41-7.6h6.02v3.15l-1.49.15v15.54l1.5.15v3.16h-7.07v-3.16l1.52-.15v-8.98c0-1.43.06-2.86.12-4.23h-.06c-.54 1.04-1.1 2.3-1.7 3.3l-3.07 5.14h-3.31l-3.04-5.13c-.6-1.01-1.17-2.3-1.7-3.31h-.06c.09 1.37.12 2.8.12 4.23v8.98l1.52.15v3.16h-7.04zm37.95-10c0-1.93-.42-4.05-3.67-4.05-3.16 0-3.6 2.12-3.6 4.06v.24h7.27v-.24zm-7.3 2.84v.27c0 2.47.32 4.05 4.44 4.05a56 56 0 0 0 6.05-.38v2.92c-1.22.33-3.43.71-6.23.71-6.03 0-8.2-2.38-8.2-8.02v-1.4c0-5.48 2.65-8.2 7.57-8.2 5.6 0 7.58 3.61 7.58 8.53v1.52h-11.22zm26.13 7.16V151.4c0-2.41-.42-3.25-2.36-3.25-1.13 0-2.65.42-4.41 1.14v9.48l1.49.14v3.14h-6.89v-3.14l1.46-.14v-10.23l-1.46-.15v-3.13h5.25v1.34c1.82-1.04 3.64-1.76 5.51-1.76 4.75 0 5.34 2.75 5.34 6.56v7.37l1.5.15v3.13h-5.44zM225.19 162.47c-3.31 0-4.62-1.28-4.62-4.8v-9.27l-3.13-.24v-2.89h3.13v-4.17h3.93v4.17h4.09v3.13h-4.09v9.21c0 1.55.12 1.85 1.55 1.85.87 0 2.06-.09 2.54-.12v2.69c-.45.12-1.91.44-3.4.44zm16.34-9.84c0-3.21-1.13-4.44-3.67-4.44s-3.64 1.23-3.64 4.44v2.06c0 3.22 1.1 4.44 3.64 4.44 2.53 0 3.67-1.22 3.67-4.44v-2.06zm-3.67 9.84c-4.89 0-7.57-2.5-7.57-7.78v-2.06c0-5.27 2.68-7.78 7.57-7.78 4.92 0 7.6 2.48 7.6 7.78v2.06c0 5.28-2.68 7.78-7.6 7.78zm15.87-13.03v9.34l1.49.15v3.13h-6.89v-3.13l1.46-.15v-10.23l-1.46-.15v-3.13h5.19v1.37c1.64-1.4 3.67-1.79 5.75-1.79v3.61c-2.02 0-4.23.42-5.54.98z"/>
    </g>
    <path fill="#4B4E4E" d="M6.2 152.34v6.4l1.49.16v3.16H.5v-3.16l1.52-.15V143.2l-1.52-.15v-3.16h15.62v5.13h-2.74l-.3-1.67H6.2V149h9.3v3.34H6.2M30.22 152.63c0-3.22-1.13-4.44-3.67-4.44-2.53 0-3.63 1.22-3.63 4.44v2.06c0 3.22 1.1 4.44 3.63 4.44 2.54 0 3.67-1.22 3.67-4.44v-2.06zm-3.67 9.84c-4.89 0-7.57-2.5-7.57-7.78v-2.06c0-5.27 2.68-7.78 7.57-7.78 4.92 0 7.6 2.48 7.6 7.78v2.06c0 5.28-2.68 7.78-7.6 7.78zM42.42 149.44v9.34l1.5.15v3.13h-6.9v-3.13l1.47-.15v-10.23l-1.47-.15v-3.13h5.2v1.37c1.63-1.4 3.66-1.79 5.75-1.79v3.61c-2.03 0-4.24.42-5.55.98M61.9 152.07c0-1.94-.42-4.06-3.67-4.06-3.16 0-3.61 2.12-3.61 4.06v.24h7.28v-.24zm-7.31 2.83v.27c0 2.47.33 4.05 4.44 4.05 1.8 0 4.45-.18 6.05-.38v2.92a25.1 25.1 0 0 1-6.23.71c-6.02 0-8.2-2.38-8.2-8.02v-1.4c0-5.48 2.66-8.2 7.58-8.2 5.6 0 7.57 3.61 7.57 8.53v1.52H54.59zM80.72 162.06V151.4c0-2.41-.42-3.25-2.36-3.25-1.13 0-2.65.42-4.4 1.14v9.48l1.48.15v3.13h-6.88v-3.13l1.46-.15v-10.23l-1.46-.15v-3.13h5.24v1.34c1.82-1.04 3.64-1.76 5.52-1.76 4.74 0 5.34 2.75 5.34 6.56v7.37l1.49.15v3.13h-5.43M90.6 142.68h4.09v-3.8H90.6v3.8zm-1.4 19.38v-3.13l1.46-.15v-10.23l-1.46-.15v-3.13h5.43v13.5l1.46.16v3.13H89.2zM111.26 162.06V151.4c0-2.41-.42-3.25-2.36-3.25-1.13 0-2.65.42-4.4 1.14v9.48l1.48.15v3.13H99.1v-3.13l1.46-.15v-10.23l-1.46-.15v-3.13h5.24v1.34c1.82-1.04 3.64-1.76 5.52-1.76 4.74 0 5.34 2.75 5.34 6.56v7.37l1.49.15v3.13h-5.43M127.37 147.75c-3.04 0-3.45 1.16-3.45 2.92 0 1.82.53 2.95 3.45 2.95 2.98 0 3.52-1.13 3.52-2.95 0-1.85-.53-2.92-3.52-2.92zm0 13.02h-3c-.52.45-.9 1.23-.9 2.48 0 1.73.6 2.56 3.9 2.56 3.2 0 4.06-.83 4.06-2.56 0-2.03-.78-2.48-4.06-2.48zm0 7.82c-5.36 0-7.66-1.67-7.66-5.31 0-1.25.57-2.53 1.55-3.46a2.85 2.85 0 0 1-1.34-2.5 3 3 0 0 1 1.49-2.66c-.86-.86-1.31-2.17-1.31-4 0-3.33 1.31-5.8 7.36-5.8h7.9v2.38l-1.64.3c.36.44.99 1.52.99 3.13 0 4.08-2.54 5.84-7.34 5.84-1.46 0-2.71-.18-3.63-.5-.4.3-.63.65-.63 1.04 0 .74.42.9 1.46.9h2.8c4.92 0 7.88.74 7.88 5.24 0 3.67-2.51 5.4-7.88 5.4zM144.33 162.47c-2.35 0-5-.44-5.72-.65v-4.15h2.74l.27 1.67c.86.06 1.67.1 2.71.1 2.24 0 2.9-.6 2.9-1.77 0-1.16-.51-1.49-2.96-2.53l-1.22-.5c-3.16-1.32-4.71-2.6-4.71-5.26 0-3.33 2.26-4.53 6.77-4.53 2.05 0 4.62.39 5.45.66v3.84h-2.7l-.3-1.4c-.78-.06-1.86-.09-2.42-.09-2.06 0-2.92.27-2.92 1.44 0 1.04.5 1.46 2.56 2.32l1.34.57c3.76 1.58 5.01 2.65 5.01 5.3 0 3.05-1.82 4.98-6.8 4.98M154.22 162.06v-3.16l1.49-.15V143.2l-1.5-.15v-3.16h6.03l4.32 7.58c.54.92 1.02 1.9 1.47 2.83h.06c.47-.93.95-1.94 1.46-2.8l4.41-7.6h6.02v3.15l-1.49.15v15.54l1.5.15v3.16h-7.07v-3.16l1.52-.15v-8.98c0-1.43.06-2.86.12-4.23h-.06c-.54 1.04-1.1 2.3-1.7 3.3l-3.07 5.14h-3.31l-3.04-5.13c-.6-1.01-1.17-2.3-1.7-3.31h-.06c.09 1.37.12 2.8.12 4.23v8.98l1.52.15v3.16h-7.04M192.17 152.07c0-1.94-.42-4.06-3.67-4.06-3.16 0-3.6 2.12-3.6 4.06v.24h7.27v-.24zm-7.3 2.83v.27c0 2.47.32 4.05 4.44 4.05a56 56 0 0 0 6.05-.38v2.92c-1.22.33-3.43.71-6.23.71-6.03 0-8.2-2.38-8.2-8.02v-1.4c0-5.48 2.65-8.2 7.57-8.2 5.6 0 7.58 3.61 7.58 8.53v1.52h-11.22zM211 162.06V151.4c0-2.41-.42-3.25-2.36-3.25-1.13 0-2.65.42-4.41 1.14v9.48l1.49.15v3.13h-6.89v-3.13l1.46-.15v-10.23l-1.46-.15v-3.13h5.25v1.34c1.82-1.04 3.64-1.76 5.51-1.76 4.75 0 5.34 2.75 5.34 6.56v7.37l1.5.15v3.13h-5.44M225.19 162.47c-3.31 0-4.62-1.28-4.62-4.8v-9.27l-3.13-.24v-2.89h3.13v-4.17h3.93v4.17h4.09v3.13h-4.09v9.21c0 1.55.12 1.85 1.55 1.85.87 0 2.06-.09 2.54-.12v2.69c-.45.12-1.91.44-3.4.44M241.53 152.63c0-3.22-1.13-4.44-3.67-4.44s-3.64 1.22-3.64 4.44v2.06c0 3.22 1.1 4.44 3.64 4.44 2.53 0 3.67-1.22 3.67-4.44v-2.06zm-3.67 9.84c-4.89 0-7.57-2.5-7.57-7.78v-2.06c0-5.27 2.68-7.78 7.57-7.78 4.92 0 7.6 2.48 7.6 7.78v2.06c0 5.28-2.68 7.78-7.6 7.78zM253.73 149.44v9.34l1.49.15v3.13h-6.89v-3.13l1.46-.15v-10.23l-1.46-.15v-3.13h5.19v1.37c1.64-1.4 3.67-1.79 5.75-1.79v3.61c-2.02 0-4.23.42-5.54.98"/>
  </g>
</svg>
